<svg xmlns="http://www.w3.org/2000/svg" xmlns:v="https://svgstorm.com"
viewBox = "0 0 442 368"
width="442"
height="368">
<g fill="None" fill-opacity="0.0" stroke="#FBFBFB" stroke-opacity="1.00" stroke-width="0.3"><path d="
M 0.00 368.00 
L 442.00 368.00
L 442.00 0.00
L 0.00 0.00
L 0.00 368.00
M 227.00 11.00 
C 228.12 12.48 226.16 16.31 227.00 18.00
C 229.19 18.52 232.62 16.86 234.00 19.00
C 235.41 20.41 235.75 24.67 234.00 26.00
C 232.52 27.12 228.69 25.16 227.00 26.00
C 227.00 28.33 227.00 30.67 227.00 33.00
C 236.75 31.05 241.48 33.41 247.00 40.00
C 248.29 41.54 251.45 42.37 251.00 45.00
C 260.11 44.12 268.53 45.29 278.00 45.00
C 277.72 63.50 278.37 83.67 278.00 102.00 C 277.63 120.33 278.71 141.29 278.00 159.00 C 277.29 176.71 280.95 197.49 274.69 212.69 C 268.44 227.90 256.63 231.61 244.32 239.32 C 232.01 247.03 214.40 248.00 201.93 240.07 C 189.46 232.15 177.12 229.28 171.08 213.92 C 165.03 198.57 168.78 177.77 168.00 160.00 C 167.22 142.23 168.40 121.47 168.00 103.00 C 167.60 84.53 168.30 63.69 168.00 45.00
C 177.26 44.37 187.19 46.28 196.00 44.00
C 196.20 42.36 200.96 35.99 202.00 35.00
C 205.99 31.20 212.59 33.70 218.00 33.00
C 218.00 31.00 218.00 29.00 218.00 27.00
C 215.11 24.11 207.44 26.48 211.00 18.00
C 213.33 18.00 215.67 18.00 218.00 18.00
C 214.40 12.28 223.46 6.33 227.00 11.00
M 31.00 308.00 
C 30.84 312.31 30.91 316.69 31.00 321.00
C 31.24 333.19 39.03 334.05 43.00 323.00
C 55.98 325.15 48.32 337.84 39.77 340.77 C 31.22 343.70 22.57 332.86 21.00 325.00
C 19.65 319.56 20.36 313.31 21.00 308.00
C 21.19 298.66 29.03 286.29 39.22 288.78 C 49.42 291.27 55.22 305.53 43.00 308.00
C 43.35 297.53 27.91 295.10 31.00 308.00
M 79.00 293.00 
C 79.71 294.98 79.84 296.81 80.00 299.00
C 80.44 301.40 81.74 304.92 81.00 308.00
C 81.75 308.53 90.25 308.53 91.00 308.00
C 92.97 303.71 87.93 291.85 92.00 289.00
C 94.01 287.59 98.74 290.06 101.00 289.00
C 101.00 306.00 101.00 323.00 101.00 340.00
C 99.91 344.39 87.88 342.61 90.00 336.00 C 92.12 329.39 87.73 321.52 90.00 319.00
C 88.23 316.97 84.52 318.47 82.00 318.00
C 82.84 324.52 80.88 330.42 82.00 337.00 C 83.12 343.58 72.12 343.74 70.00 340.00
C 67.61 334.79 71.17 326.75 70.00 321.00 C 68.83 315.25 70.73 307.92 70.00 302.00
C 68.48 295.88 65.69 295.15 71.00 291.00
C 74.82 288.01 76.98 287.37 79.00 293.00
M 146.00 295.00 
C 149.09 295.30 141.86 300.48 137.00 298.00 C 132.14 295.52 128.98 303.76 131.00 308.00
C 138.61 306.06 148.37 309.08 143.00 318.00
C 140.09 320.04 133.26 316.47 130.00 318.00
C 130.00 322.67 130.00 327.33 130.00 332.00
C 135.67 332.00 141.33 332.00 147.00 332.00
C 148.88 333.31 148.38 338.62 147.00 340.00
C 144.97 342.03 137.08 341.45 134.00 341.00 C 130.92 340.55 122.49 342.74 120.00 341.00
C 116.70 338.69 119.71 330.34 119.00 326.00 C 118.29 321.66 119.19 313.81 119.00 309.00 C 118.81 304.19 117.90 297.46 121.00 294.00
C 127.38 286.89 137.04 287.73 146.00 288.00
C 146.00 290.33 146.00 292.67 146.00 295.00
M 185.00 306.00 
C 183.34 292.06 168.33 301.18 175.25 307.75 C 182.17 314.32 190.15 313.23 192.97 322.03 C 195.79 330.82 186.81 338.37 180.30 341.30 C 173.80 344.24 162.51 333.68 163.00 327.00
C 165.73 326.69 167.59 324.16 170.00 323.00
C 170.48 330.46 183.90 334.45 182.99 325.99 C 182.09 317.54 172.54 319.34 167.25 313.75 C 161.96 308.17 161.04 299.10 167.75 293.75 C 174.46 288.40 179.46 286.11 186.25 291.75 C 193.04 297.39 195.18 303.91 185.00 306.00
M 216.00 339.00 
C 213.72 337.48 210.03 334.56 209.00 332.00
C 208.40 330.50 208.00 328.71 208.00 327.00
C 211.14 326.82 212.58 322.70 216.00 323.00
C 215.30 332.42 230.66 333.67 228.00 325.00 C 225.34 316.33 217.10 319.65 211.75 313.25 C 206.41 306.84 207.15 300.15 213.25 294.25 C 219.34 288.35 224.48 286.48 231.70 291.30 C 238.92 296.13 240.04 305.28 230.00 306.00
C 231.15 295.97 214.53 297.09 218.00 305.00 C 221.47 312.91 228.87 310.35 234.23 315.77 C 239.59 321.19 239.54 329.76 233.75 334.75 C 227.96 339.75 223.07 344.87 216.00 339.00
M 379.00 289.00 
C 380.93 291.88 376.78 299.00 377.22 302.22 C 377.66 305.45 373.53 309.46 371.00 311.00
C 379.20 318.83 379.91 329.95 380.00 341.00
C 376.67 341.00 373.33 341.00 370.00 341.00
C 368.91 333.32 371.82 325.31 365.75 319.25 C 359.69 313.18 353.74 326.08 356.00 332.00
C 356.00 335.00 357.11 339.46 354.00 341.00
C 353.18 341.40 346.71 341.50 346.00 341.00
C 343.50 339.25 345.84 335.65 346.00 334.00
C 346.00 325.94 346.41 317.62 354.00 313.00
C 349.02 307.25 348.09 299.64 345.00 293.00
C 352.76 286.97 357.98 290.14 358.93 301.07 C 359.87 312.00 371.93 304.01 368.00 294.00
C 368.34 289.53 375.18 283.32 379.00 289.00
M 274.00 293.00 
C 276.62 294.67 280.72 298.17 282.00 301.00
C 287.55 313.28 274.98 319.52 266.77 324.77 C 258.56 330.02 267.71 336.25 274.00 333.00 C 280.29 329.75 287.58 339.94 278.99 340.99 C 270.41 342.04 267.05 340.21 259.00 341.00 C 250.95 341.79 254.14 330.97 254.98 325.98 C 255.82 320.98 261.02 317.68 265.25 315.25 C 269.47 312.81 276.03 308.97 272.22 302.78 C 268.41 296.59 262.95 303.72 262.00 308.00
C 244.81 306.16 264.79 283.49 274.00 293.00
M 327.00 322.00 
C 331.77 321.01 329.45 327.30 330.00 330.00
C 324.49 329.54 327.99 337.60 327.00 341.00
C 324.00 341.00 321.00 341.00 318.00 341.00
C 322.39 326.79 307.39 331.40 300.00 326.00
C 300.80 317.03 305.16 311.37 307.77 302.77 C 310.38 294.17 314.29 288.15 322.75 295.25 C 331.20 302.36 325.21 311.95 327.00 322.00
M 422.00 292.00 
C 429.38 297.49 417.95 309.53 416.23 316.23 C 414.51 322.93 408.10 333.91 406.00 341.00
C 393.18 341.81 401.15 330.69 403.92 323.92 C 406.70 317.16 411.09 309.24 413.00 302.00
C 409.48 297.26 400.06 303.06 396.00 299.00
C 390.68 293.88 398.79 289.09 404.00 291.00 C 409.21 292.91 417.52 288.67 422.00 292.00 Z"/>
</g>
<g fill="None" fill-opacity="0.0" stroke="#686868" stroke-opacity="1.00" stroke-width="0.3"><path d="
M 218.00 18.00 
C 219.94 16.52 218.58 13.21 219.00 11.00
C 221.67 11.00 224.33 11.00 227.00 11.00
C 223.46 6.33 214.40 12.28 218.00 18.00 Z"/>
</g>
<g fill="None" fill-opacity="0.0" stroke="#000000" stroke-opacity="1.00" stroke-width="0.3"><path d="
M 218.00 18.00 
C 215.67 18.00 213.33 18.00 211.00 18.00
C 207.44 26.48 215.11 24.11 218.00 27.00
C 226.58 35.58 204.36 33.39 202.00 35.00
C 200.96 35.99 196.20 42.36 196.00 44.00
C 195.54 47.76 200.56 52.76 201.30 55.70 C 202.05 58.63 209.56 64.33 208.00 67.00
C 206.17 70.14 197.98 66.72 195.00 68.00
C 193.43 70.24 196.18 75.49 195.00 78.00
C 199.63 78.48 204.80 76.92 209.00 79.00
C 200.46 118.52 192.71 158.24 185.00 198.00
C 183.02 201.10 179.02 199.80 175.00 200.00
C 172.96 202.91 176.53 209.74 175.00 213.00
C 207.00 213.00 239.00 213.00 271.00 213.00
C 270.36 208.83 272.29 203.34 270.00 200.00
C 267.58 198.31 263.32 201.46 261.00 199.00
C 257.18 194.95 259.50 184.46 257.02 178.98 C 254.55 173.49 254.90 165.10 253.02 158.98 C 251.15 152.85 250.66 145.38 249.02 138.98 C 247.39 132.57 246.63 125.48 245.02 118.98 C 243.42 112.47 242.79 105.47 241.02 98.98 C 239.26 92.48 239.26 85.37 237.00 79.00
C 236.84 78.56 237.00 78.00 237.00 78.00
C 239.76 75.15 246.32 78.06 250.00 77.00
C 250.00 74.33 250.00 71.67 250.00 69.00
C 246.73 66.58 241.06 68.74 237.00 68.00
C 236.70 66.43 237.25 64.39 239.00 64.00
C 243.03 56.46 252.95 48.00 247.00 40.00
C 245.16 37.52 243.09 34.93 239.97 34.03 C 236.86 33.13 228.97 35.86 227.00 33.00
C 227.00 30.67 227.00 28.33 227.00 26.00
C 228.69 25.16 232.52 27.12 234.00 26.00
C 233.20 24.17 235.06 20.66 234.00 19.00
C 232.62 16.86 229.19 18.52 227.00 18.00
C 226.16 16.31 228.12 12.48 227.00 11.00
C 224.33 11.00 221.67 11.00 219.00 11.00
C 218.58 13.21 219.94 16.52 218.00 18.00
M 236.00 91.00 
C 243.27 127.00 249.68 163.28 258.00 199.00
C 239.90 205.60 244.58 184.36 243.00 172.00 C 241.42 159.64 239.94 143.93 239.00 131.00 C 238.06 118.07 234.33 103.40 236.00 91.00 Z"/>
</g>
<g fill="None" fill-opacity="0.0" stroke="#696969" stroke-opacity="1.00" stroke-width="0.3"><path d="
M 234.00 26.00 
C 235.75 24.67 235.41 20.41 234.00 19.00
C 235.06 20.66 233.20 24.17 234.00 26.00 Z"/>
</g>
<g fill="None" fill-opacity="0.0" stroke="#8F8F8F" stroke-opacity="1.00" stroke-width="0.3"><path d="
M 202.00 35.00 
C 204.36 33.39 226.58 35.58 218.00 27.00
C 218.00 29.00 218.00 31.00 218.00 33.00
C 212.59 33.70 205.99 31.20 202.00 35.00 Z"/>
</g>
<g fill="None" fill-opacity="0.0" stroke="#8F8F8F" stroke-opacity="1.00" stroke-width="0.3"><path d="
M 247.00 40.00 
C 241.48 33.41 236.75 31.05 227.00 33.00
C 228.97 35.86 236.86 33.13 239.97 34.03 C 243.09 34.93 245.16 37.52 247.00 40.00 Z"/>
</g>
<g fill="None" fill-opacity="0.0" stroke="#B1B1B1" stroke-opacity="1.00" stroke-width="0.3"><path d="
M 239.00 64.00 
C 238.80 65.01 237.55 65.76 238.00 67.00
C 241.96 68.08 249.43 64.68 251.00 69.00
C 251.15 70.63 251.89 76.73 251.00 78.00
C 249.43 80.24 239.79 79.25 237.00 79.00
C 239.26 85.37 239.26 92.48 241.02 98.98 C 242.79 105.47 243.42 112.47 245.02 118.98 C 246.63 125.48 247.39 132.57 249.02 138.98 C 250.66 145.38 251.15 152.85 253.02 158.98 C 254.90 165.10 254.55 173.49 257.02 178.98 C 259.50 184.46 257.18 194.95 261.00 199.00
C 263.92 199.51 267.88 197.88 270.00 200.00
C 272.29 203.34 270.36 208.83 271.00 213.00
C 239.00 213.00 207.00 213.00 175.00 213.00
C 176.53 209.74 172.96 202.91 175.00 200.00
C 176.96 197.20 182.58 200.64 185.00 198.00
C 192.71 158.24 200.46 118.52 209.00 79.00
C 204.80 76.92 199.63 78.48 195.00 78.00
C 196.18 75.49 193.43 70.24 195.00 68.00
C 197.16 64.91 204.77 68.24 208.00 67.00
C 209.56 64.33 202.05 58.63 201.30 55.70 C 200.56 52.76 195.54 47.76 196.00 44.00
C 187.19 46.28 177.26 44.37 168.00 45.00
C 168.30 63.69 167.60 84.53 168.00 103.00 C 168.40 121.47 167.22 142.23 168.00 160.00 C 168.78 177.77 165.03 198.57 171.08 213.92 C 177.12 229.28 189.46 232.15 201.93 240.07 C 214.40 248.00 232.01 247.03 244.32 239.32 C 256.63 231.61 268.44 227.90 274.69 212.69 C 280.95 197.49 277.29 176.71 278.00 159.00 C 278.71 141.29 277.63 120.33 278.00 102.00 C 278.37 83.67 277.72 63.50 278.00 45.00
C 268.53 45.29 260.11 44.12 251.00 45.00
C 251.45 42.37 248.29 41.54 247.00 40.00
C 252.95 48.00 243.03 56.46 239.00 64.00 Z"/>
</g>
<g fill="None" fill-opacity="0.0" stroke="#575757" stroke-opacity="1.00" stroke-width="0.3"><path d="
M 250.00 69.00 
C 250.32 69.24 251.00 69.00 251.00 69.00
C 249.43 64.68 241.96 68.08 238.00 67.00
C 237.55 65.76 238.80 65.01 239.00 64.00
C 237.25 64.39 236.70 66.43 237.00 68.00
C 241.06 68.74 246.73 66.58 250.00 69.00 Z"/>
</g>
<g fill="None" fill-opacity="0.0" stroke="#5B5B5B" stroke-opacity="1.00" stroke-width="0.3"><path d="
M 195.00 68.00 
C 197.98 66.72 206.17 70.14 208.00 67.00
C 204.77 68.24 197.16 64.91 195.00 68.00 Z"/>
</g>
<g fill="None" fill-opacity="0.0" stroke="#323232" stroke-opacity="1.00" stroke-width="0.3"><path d="
M 237.00 78.00 
C 241.63 77.58 246.36 78.31 251.00 78.00
C 251.89 76.73 251.15 70.63 251.00 69.00
C 251.00 69.00 250.32 69.24 250.00 69.00
C 250.00 71.67 250.00 74.33 250.00 77.00
C 246.32 78.06 239.76 75.15 237.00 78.00 Z"/>
</g>
<g fill="None" fill-opacity="0.0" stroke="#858585" stroke-opacity="1.00" stroke-width="0.3"><path d="
M 237.00 79.00 
C 239.79 79.25 249.43 80.24 251.00 78.00
C 246.36 78.31 241.63 77.58 237.00 78.00
C 237.00 78.00 236.84 78.56 237.00 79.00 Z"/>
</g>
<g fill="None" fill-opacity="0.0" stroke="#323232" stroke-opacity="1.00" stroke-width="0.3"><path d="
M 236.00 91.00 
C 234.33 103.40 238.06 118.07 239.00 131.00 C 239.94 143.93 241.42 159.64 243.00 172.00 C 244.58 184.36 239.90 205.60 258.00 199.00
C 249.68 163.28 243.27 127.00 236.00 91.00 Z"/>
</g>
<g fill="None" fill-opacity="0.0" stroke="#656565" stroke-opacity="1.00" stroke-width="0.3"><path d="
M 175.00 200.00 
C 179.02 199.80 183.02 201.10 185.00 198.00
C 182.58 200.64 176.96 197.20 175.00 200.00 Z"/>
</g>
<g fill="None" fill-opacity="0.0" stroke="#676767" stroke-opacity="1.00" stroke-width="0.3"><path d="
M 270.00 200.00 
C 267.88 197.88 263.92 199.51 261.00 199.00
C 263.32 201.46 267.58 198.31 270.00 200.00 Z"/>
</g>
<g fill="None" fill-opacity="0.0" stroke="#060606" stroke-opacity="1.00" stroke-width="0.3"><path d="
M 21.00 308.00 
C 20.89 313.48 20.33 319.57 21.00 325.00
C 22.57 332.86 31.22 343.70 39.77 340.77 C 48.32 337.84 55.98 325.15 43.00 323.00
C 39.03 334.05 31.24 333.19 31.00 321.00
C 30.49 316.77 30.40 312.19 31.00 308.00
C 27.91 295.10 43.35 297.53 43.00 308.00
C 55.22 305.53 49.42 291.27 39.22 288.78 C 29.03 286.29 21.19 298.66 21.00 308.00 Z"/>
</g>
<g fill="None" fill-opacity="0.0" stroke="#808080" stroke-opacity="1.00" stroke-width="0.3"><path d="
M 71.00 291.00 
C 74.49 289.04 77.06 288.76 79.00 293.00
C 76.98 287.37 74.82 288.01 71.00 291.00 Z"/>
</g>
<g fill="None" fill-opacity="0.0" stroke="#020202" stroke-opacity="1.00" stroke-width="0.3"><path d="
M 121.00 294.00 
C 117.09 300.12 121.28 309.83 120.00 317.00 C 118.72 324.17 120.96 333.62 120.00 341.00
C 122.49 342.74 130.92 340.55 134.00 341.00 C 137.08 341.45 144.97 342.03 147.00 340.00
C 148.25 338.21 146.06 334.01 147.00 332.00
C 141.33 332.00 135.67 332.00 130.00 332.00
C 130.00 327.33 130.00 322.67 130.00 318.00
C 133.26 316.47 140.09 320.04 143.00 318.00
C 143.00 315.00 143.00 312.00 143.00 309.00
C 138.67 309.00 134.33 309.00 130.00 309.00
C 127.94 307.56 128.00 297.89 131.00 297.00
C 131.46 296.86 132.00 297.00 132.00 297.00
C 135.24 294.60 141.84 296.38 146.00 296.00
C 146.25 295.74 146.00 295.00 146.00 295.00
C 146.00 292.67 146.00 290.33 146.00 288.00
C 137.04 287.73 127.38 286.89 121.00 294.00 Z"/>
</g>
<g fill="None" fill-opacity="0.0" stroke="#060606" stroke-opacity="1.00" stroke-width="0.3"><path d="
M 185.00 306.00 
C 195.18 303.91 193.04 297.39 186.25 291.75 C 179.46 286.11 174.46 288.40 167.75 293.75 C 161.04 299.10 161.96 308.17 167.25 313.75 C 172.54 319.34 182.09 317.54 182.99 325.99 C 183.90 334.45 170.48 330.46 170.00 323.00
C 167.59 324.16 165.73 326.69 163.00 327.00
C 162.51 333.68 173.80 344.24 180.30 341.30 C 186.81 338.37 195.79 330.82 192.97 322.03 C 190.15 313.23 182.17 314.32 175.25 307.75 C 168.33 301.18 183.34 292.06 185.00 306.00 Z"/>
</g>
<g fill="None" fill-opacity="0.0" stroke="#050505" stroke-opacity="1.00" stroke-width="0.3"><path d="
M 209.00 332.00 
C 209.73 333.47 214.65 337.95 216.00 339.00
C 223.07 344.87 227.96 339.75 233.75 334.75 C 239.54 329.76 239.59 321.19 234.23 315.77 C 228.87 310.35 221.47 312.91 218.00 305.00 C 214.53 297.09 231.15 295.97 230.00 306.00
C 240.04 305.28 238.92 296.13 231.70 291.30 C 224.48 286.48 219.34 288.35 213.25 294.25 C 207.15 300.15 206.41 306.84 211.75 313.25 C 217.10 319.65 225.34 316.33 228.00 325.00 C 230.66 333.67 215.30 332.42 216.00 323.00
C 212.58 322.70 211.14 326.82 208.00 327.00
C 208.00 328.71 208.40 330.50 209.00 332.00 Z"/>
</g>
<g fill="None" fill-opacity="0.0" stroke="#949494" stroke-opacity="1.00" stroke-width="0.3"><path d="
M 368.00 294.00 
C 368.18 292.91 369.88 290.76 369.00 289.00
C 372.33 289.00 375.67 289.00 379.00 289.00
C 375.18 283.32 368.34 289.53 368.00 294.00 Z"/>
</g>
<g fill="None" fill-opacity="0.0" stroke="#010101" stroke-opacity="1.00" stroke-width="0.3"><path d="
M 71.00 291.00 
C 65.69 295.15 68.48 295.88 70.00 302.00
C 70.76 305.07 71.75 310.34 71.00 314.00 C 70.25 317.66 72.24 324.84 71.00 328.00 C 69.76 331.16 73.16 339.69 72.00 341.00
C 74.23 341.48 78.54 341.46 80.00 340.00
C 83.55 334.93 76.37 322.63 81.00 318.00
C 82.73 316.27 89.31 316.31 91.00 318.00
C 95.38 322.38 87.85 337.36 93.00 341.00
C 94.59 341.78 100.10 341.29 101.00 340.00
C 101.00 323.00 101.00 306.00 101.00 289.00
C 98.74 290.06 94.01 287.59 92.00 289.00
C 90.03 293.29 95.07 305.15 91.00 308.00
C 90.25 308.53 81.75 308.53 81.00 308.00
C 78.94 306.56 80.17 301.38 80.00 299.00
C 79.84 296.81 79.71 294.98 79.00 293.00
C 77.06 288.76 74.49 289.04 71.00 291.00 Z"/>
</g>
<g fill="None" fill-opacity="0.0" stroke="#6B6B6B" stroke-opacity="1.00" stroke-width="0.3"><path d="
M 91.00 308.00 
C 95.07 305.15 90.03 293.29 92.00 289.00
C 87.93 291.85 92.97 303.71 91.00 308.00 Z"/>
</g>
<g fill="None" fill-opacity="0.0" stroke="#040404" stroke-opacity="1.00" stroke-width="0.3"><path d="
M 346.00 334.00 
C 346.00 336.33 346.00 338.67 346.00 341.00
C 346.71 341.50 353.18 341.40 354.00 341.00
C 355.23 340.13 355.90 332.99 356.00 332.00
C 353.74 326.08 359.69 313.18 365.75 319.25 C 371.82 325.31 368.91 333.32 370.00 341.00
C 373.33 341.00 376.67 341.00 380.00 341.00
C 379.91 329.95 379.20 318.83 371.00 311.00
C 373.53 309.46 377.66 305.45 377.22 302.22 C 376.78 299.00 380.93 291.88 379.00 289.00
C 375.67 289.00 372.33 289.00 369.00 289.00
C 369.88 290.76 368.18 292.91 368.00 294.00
C 371.93 304.01 359.87 312.00 358.93 301.07 C 357.98 290.14 352.76 286.97 345.00 293.00
C 348.09 299.64 349.02 307.25 354.00 313.00
C 346.41 317.62 346.00 325.94 346.00 334.00 Z"/>
</g>
<g fill="None" fill-opacity="0.0" stroke="#060606" stroke-opacity="1.00" stroke-width="0.3"><path d="
M 282.00 301.00 
C 281.02 299.17 275.68 294.27 274.00 293.00
C 264.79 283.49 244.81 306.16 262.00 308.00
C 262.95 303.72 268.41 296.59 272.22 302.78 C 276.03 308.97 269.47 312.81 265.25 315.25 C 261.02 317.68 255.82 320.98 254.98 325.98 C 254.14 330.97 250.95 341.79 259.00 341.00 C 267.05 340.21 270.41 342.04 278.99 340.99 C 287.58 339.94 280.29 329.75 274.00 333.00 C 267.71 336.25 258.56 330.02 266.77 324.77 C 274.98 319.52 287.55 313.28 282.00 301.00 Z"/>
</g>
<g fill="None" fill-opacity="0.0" stroke="#040404" stroke-opacity="1.00" stroke-width="0.3"><path d="
M 327.00 322.00 
C 325.21 311.95 331.20 302.36 322.75 295.25 C 314.29 288.15 310.38 294.17 307.77 302.77 C 305.16 311.37 300.80 317.03 300.00 326.00
C 307.39 331.40 322.39 326.79 318.00 341.00
C 321.00 341.00 324.00 341.00 327.00 341.00
C 327.99 337.60 324.49 329.54 330.00 330.00
C 329.45 327.30 331.77 321.01 327.00 322.00
M 318.00 322.00 
C 315.48 321.44 311.70 323.19 310.00 321.00
C 313.10 314.92 313.58 307.98 317.00 302.00
C 319.28 307.75 317.37 315.49 318.00 322.00 Z"/>
</g>
<g fill="None" fill-opacity="0.0" stroke="#676767" stroke-opacity="1.00" stroke-width="0.3"><path d="
M 396.00 299.00 
C 395.96 299.00 396.00 298.00 396.00 298.00
C 395.64 296.07 396.27 293.95 396.00 292.00
C 404.67 292.00 413.33 292.00 422.00 292.00
C 417.52 288.67 409.21 292.91 404.00 291.00 C 398.79 289.09 390.68 293.88 396.00 299.00 Z"/>
</g>
<g fill="None" fill-opacity="0.0" stroke="#050505" stroke-opacity="1.00" stroke-width="0.3"><path d="
M 396.00 298.00 
C 402.28 297.43 408.71 298.43 415.00 298.00
C 414.89 299.00 415.47 300.73 414.00 301.00
C 413.77 301.29 413.13 301.73 413.00 302.00
C 411.09 309.24 406.70 317.16 403.92 323.92 C 401.15 330.69 393.18 341.81 406.00 341.00
C 408.10 333.91 414.51 322.93 416.23 316.23 C 417.95 309.53 429.38 297.49 422.00 292.00
C 413.33 292.00 404.67 292.00 396.00 292.00
C 396.27 293.95 395.64 296.07 396.00 298.00 Z"/>
</g>
<g fill="None" fill-opacity="0.0" stroke="#787878" stroke-opacity="1.00" stroke-width="0.3"><path d="
M 282.00 301.00 
C 280.72 298.17 276.62 294.67 274.00 293.00
C 275.68 294.27 281.02 299.17 282.00 301.00 Z"/>
</g>
<g fill="None" fill-opacity="0.0" stroke="#8F8F8F" stroke-opacity="1.00" stroke-width="0.3"><path d="
M 120.00 341.00 
C 120.96 333.62 118.72 324.17 120.00 317.00 C 121.28 309.83 117.09 300.12 121.00 294.00
C 117.90 297.46 118.81 304.19 119.00 309.00 C 119.19 313.81 118.29 321.66 119.00 326.00 C 119.71 330.34 116.70 338.69 120.00 341.00 Z"/>
</g>
<g fill="None" fill-opacity="0.0" stroke="#CACACA" stroke-opacity="1.00" stroke-width="0.3"><path d="
M 146.00 296.00 
C 143.68 298.40 135.43 297.00 132.00 297.00
C 132.00 297.00 131.46 296.86 131.00 297.00
C 128.47 300.13 130.84 305.36 130.00 309.00
C 134.33 309.00 138.67 309.00 143.00 309.00
C 143.00 312.00 143.00 315.00 143.00 318.00
C 148.37 309.08 138.61 306.06 131.00 308.00
C 128.98 303.76 132.14 295.52 137.00 298.00 C 141.86 300.48 149.09 295.30 146.00 295.00
C 146.00 295.00 146.25 295.74 146.00 296.00 Z"/>
</g>
<g fill="None" fill-opacity="0.0" stroke="#595959" stroke-opacity="1.00" stroke-width="0.3"><path d="
M 132.00 297.00 
C 135.43 297.00 143.68 298.40 146.00 296.00
C 141.84 296.38 135.24 294.60 132.00 297.00 Z"/>
</g>
<g fill="None" fill-opacity="0.0" stroke="#585858" stroke-opacity="1.00" stroke-width="0.3"><path d="
M 130.00 309.00 
C 130.84 305.36 128.47 300.13 131.00 297.00
C 128.00 297.89 127.94 307.56 130.00 309.00 Z"/>
</g>
<g fill="None" fill-opacity="0.0" stroke="#343434" stroke-opacity="1.00" stroke-width="0.3"><path d="
M 396.00 299.00 
C 399.28 299.30 413.94 297.16 414.00 301.00
C 415.47 300.73 414.89 299.00 415.00 298.00
C 408.71 298.43 402.28 297.43 396.00 298.00
C 396.00 298.00 395.96 299.00 396.00 299.00 Z"/>
</g>
<g fill="None" fill-opacity="0.0" stroke="#6D6D6D" stroke-opacity="1.00" stroke-width="0.3"><path d="
M 81.00 308.00 
C 81.74 304.92 80.44 301.40 80.00 299.00
C 80.17 301.38 78.94 306.56 81.00 308.00 Z"/>
</g>
<g fill="None" fill-opacity="0.0" stroke="#BEBEBE" stroke-opacity="1.00" stroke-width="0.3"><path d="
M 413.00 302.00 
C 413.13 301.73 413.77 301.29 414.00 301.00
C 413.94 297.16 399.28 299.30 396.00 299.00
C 400.06 303.06 409.48 297.26 413.00 302.00 Z"/>
</g>
<g fill="None" fill-opacity="0.0" stroke="#878787" stroke-opacity="1.00" stroke-width="0.3"><path d="
M 70.00 340.00 
C 70.16 340.36 71.65 340.92 72.00 341.00
C 73.16 339.69 69.76 331.16 71.00 328.00 C 72.24 324.84 70.25 317.66 71.00 314.00 C 71.75 310.34 70.76 305.07 70.00 302.00
C 70.73 307.92 68.83 315.25 70.00 321.00 C 71.17 326.75 67.61 334.79 70.00 340.00 Z"/>
</g>
<g fill="None" fill-opacity="0.0" stroke="#D3D3D3" stroke-opacity="1.00" stroke-width="0.3"><path d="
M 318.00 322.00 
C 317.37 315.49 319.28 307.75 317.00 302.00
C 313.58 307.98 313.10 314.92 310.00 321.00
C 311.70 323.19 315.48 321.44 318.00 322.00 Z"/>
</g>
<g fill="None" fill-opacity="0.0" stroke="#909090" stroke-opacity="1.00" stroke-width="0.3"><path d="
M 21.00 325.00 
C 20.33 319.57 20.89 313.48 21.00 308.00
C 20.36 313.31 19.65 319.56 21.00 325.00 Z"/>
</g>
<g fill="None" fill-opacity="0.0" stroke="#7C7C7C" stroke-opacity="1.00" stroke-width="0.3"><path d="
M 31.00 321.00 
C 30.91 316.69 30.84 312.31 31.00 308.00
C 30.40 312.19 30.49 316.77 31.00 321.00 Z"/>
</g>
<g fill="None" fill-opacity="0.0" stroke="#D4D4D4" stroke-opacity="1.00" stroke-width="0.3"><path d="
M 81.00 318.00 
C 77.45 323.07 84.63 335.37 80.00 340.00
C 78.54 341.46 74.23 341.48 72.00 341.00
C 71.65 340.92 70.16 340.36 70.00 340.00
C 72.12 343.74 83.12 343.58 82.00 337.00 C 80.88 330.42 82.84 324.52 82.00 318.00
C 84.52 318.47 88.23 316.97 90.00 319.00
C 87.73 321.52 92.12 329.39 90.00 336.00 C 87.88 342.61 99.91 344.39 101.00 340.00
C 100.10 341.29 94.59 341.78 93.00 341.00
C 86.47 337.77 94.45 322.92 91.00 318.00
C 89.31 316.31 82.73 316.27 81.00 318.00 Z"/>
</g>
<g fill="None" fill-opacity="0.0" stroke="#636363" stroke-opacity="1.00" stroke-width="0.3"><path d="
M 80.00 340.00 
C 84.63 335.37 77.45 323.07 81.00 318.00
C 76.37 322.63 83.55 334.93 80.00 340.00 Z"/>
</g>
<g fill="None" fill-opacity="0.0" stroke="#696969" stroke-opacity="1.00" stroke-width="0.3"><path d="
M 93.00 341.00 
C 87.85 337.36 95.38 322.38 91.00 318.00
C 94.45 322.92 86.47 337.77 93.00 341.00 Z"/>
</g>
<g fill="None" fill-opacity="0.0" stroke="#787878" stroke-opacity="1.00" stroke-width="0.3"><path d="
M 147.00 340.00 
C 148.38 338.62 148.88 333.31 147.00 332.00
C 146.06 334.01 148.25 338.21 147.00 340.00 Z"/>
</g>
<g fill="None" fill-opacity="0.0" stroke="#717171" stroke-opacity="1.00" stroke-width="0.3"><path d="
M 216.00 339.00 
C 214.65 337.95 209.73 333.47 209.00 332.00
C 210.03 334.56 213.72 337.48 216.00 339.00 Z"/>
</g>
<g fill="None" fill-opacity="0.0" stroke="#797979" stroke-opacity="1.00" stroke-width="0.3"><path d="
M 354.00 341.00 
C 357.11 339.46 356.00 335.00 356.00 332.00
C 355.90 332.99 355.23 340.13 354.00 341.00 Z"/>
</g>
<g fill="None" fill-opacity="0.0" stroke="#858585" stroke-opacity="1.00" stroke-width="0.3"><path d="
M 346.00 341.00 
C 346.00 338.67 346.00 336.33 346.00 334.00
C 345.84 335.65 343.50 339.25 346.00 341.00 Z"/>
</g>
<g fill="#FBFBFB" fill-opacity="1.00" stroke="None">
<path d="
M 0.00 368.00 
L 442.00 368.00
L 442.00 0.00
L 0.00 0.00
L 0.00 368.00
M 227.00 11.00 
C 228.12 12.48 226.16 16.31 227.00 18.00
C 229.19 18.52 232.62 16.86 234.00 19.00
C 235.41 20.41 235.75 24.67 234.00 26.00
C 232.52 27.12 228.69 25.16 227.00 26.00
C 227.00 28.33 227.00 30.67 227.00 33.00
C 236.75 31.05 241.48 33.41 247.00 40.00
C 248.29 41.54 251.45 42.37 251.00 45.00
C 260.11 44.12 268.53 45.29 278.00 45.00
C 277.72 63.50 278.37 83.67 278.00 102.00 C 277.63 120.33 278.71 141.29 278.00 159.00 C 277.29 176.71 280.95 197.49 274.69 212.69 C 268.44 227.90 256.63 231.61 244.32 239.32 C 232.01 247.03 214.40 248.00 201.93 240.07 C 189.46 232.15 177.12 229.28 171.08 213.92 C 165.03 198.57 168.78 177.77 168.00 160.00 C 167.22 142.23 168.40 121.47 168.00 103.00 C 167.60 84.53 168.30 63.69 168.00 45.00
C 177.26 44.37 187.19 46.28 196.00 44.00
C 196.20 42.36 200.96 35.99 202.00 35.00
C 205.99 31.20 212.59 33.70 218.00 33.00
C 218.00 31.00 218.00 29.00 218.00 27.00
C 215.11 24.11 207.44 26.48 211.00 18.00
C 213.33 18.00 215.67 18.00 218.00 18.00
C 214.40 12.28 223.46 6.33 227.00 11.00
M 31.00 308.00 
C 30.84 312.31 30.91 316.69 31.00 321.00
C 31.24 333.19 39.03 334.05 43.00 323.00
C 55.98 325.15 48.32 337.84 39.77 340.77 C 31.22 343.70 22.57 332.86 21.00 325.00
C 19.65 319.56 20.36 313.31 21.00 308.00
C 21.19 298.66 29.03 286.29 39.22 288.78 C 49.42 291.27 55.22 305.53 43.00 308.00
C 43.35 297.53 27.91 295.10 31.00 308.00
M 79.00 293.00 
C 79.71 294.98 79.84 296.81 80.00 299.00
C 80.44 301.40 81.74 304.92 81.00 308.00
C 81.75 308.53 90.25 308.53 91.00 308.00
C 92.97 303.71 87.93 291.85 92.00 289.00
C 94.01 287.59 98.74 290.06 101.00 289.00
C 101.00 306.00 101.00 323.00 101.00 340.00
C 99.91 344.39 87.88 342.61 90.00 336.00 C 92.12 329.39 87.73 321.52 90.00 319.00
C 88.23 316.97 84.52 318.47 82.00 318.00
C 82.84 324.52 80.88 330.42 82.00 337.00 C 83.12 343.58 72.12 343.74 70.00 340.00
C 67.61 334.79 71.17 326.75 70.00 321.00 C 68.83 315.25 70.73 307.92 70.00 302.00
C 68.48 295.88 65.69 295.15 71.00 291.00
C 74.82 288.01 76.98 287.37 79.00 293.00
M 146.00 295.00 
C 149.09 295.30 141.86 300.48 137.00 298.00 C 132.14 295.52 128.98 303.76 131.00 308.00
C 138.61 306.06 148.37 309.08 143.00 318.00
C 140.09 320.04 133.26 316.47 130.00 318.00
C 130.00 322.67 130.00 327.33 130.00 332.00
C 135.67 332.00 141.33 332.00 147.00 332.00
C 148.88 333.31 148.38 338.62 147.00 340.00
C 144.97 342.03 137.08 341.45 134.00 341.00 C 130.92 340.55 122.49 342.74 120.00 341.00
C 116.70 338.69 119.71 330.34 119.00 326.00 C 118.29 321.66 119.19 313.81 119.00 309.00 C 118.81 304.19 117.90 297.46 121.00 294.00
C 127.38 286.89 137.04 287.73 146.00 288.00
C 146.00 290.33 146.00 292.67 146.00 295.00
M 185.00 306.00 
C 183.34 292.06 168.33 301.18 175.25 307.75 C 182.17 314.32 190.15 313.23 192.97 322.03 C 195.79 330.82 186.81 338.37 180.30 341.30 C 173.80 344.24 162.51 333.68 163.00 327.00
C 165.73 326.69 167.59 324.16 170.00 323.00
C 170.48 330.46 183.90 334.45 182.99 325.99 C 182.09 317.54 172.54 319.34 167.25 313.75 C 161.96 308.17 161.04 299.10 167.75 293.75 C 174.46 288.40 179.46 286.11 186.25 291.75 C 193.04 297.39 195.18 303.91 185.00 306.00
M 216.00 339.00 
C 213.72 337.48 210.03 334.56 209.00 332.00
C 208.40 330.50 208.00 328.71 208.00 327.00
C 211.14 326.82 212.58 322.70 216.00 323.00
C 215.30 332.42 230.66 333.67 228.00 325.00 C 225.34 316.33 217.10 319.65 211.75 313.25 C 206.41 306.84 207.15 300.15 213.25 294.25 C 219.34 288.35 224.48 286.48 231.70 291.30 C 238.92 296.13 240.04 305.28 230.00 306.00
C 231.15 295.97 214.53 297.09 218.00 305.00 C 221.47 312.91 228.87 310.35 234.23 315.77 C 239.59 321.19 239.54 329.76 233.75 334.75 C 227.96 339.75 223.07 344.87 216.00 339.00
M 379.00 289.00 
C 380.93 291.88 376.78 299.00 377.22 302.22 C 377.66 305.45 373.53 309.46 371.00 311.00
C 379.20 318.83 379.91 329.95 380.00 341.00
C 376.67 341.00 373.33 341.00 370.00 341.00
C 368.91 333.32 371.82 325.31 365.75 319.25 C 359.69 313.18 353.74 326.08 356.00 332.00
C 356.00 335.00 357.11 339.46 354.00 341.00
C 353.18 341.40 346.71 341.50 346.00 341.00
C 343.50 339.25 345.84 335.65 346.00 334.00
C 346.00 325.94 346.41 317.62 354.00 313.00
C 349.02 307.25 348.09 299.64 345.00 293.00
C 352.76 286.97 357.98 290.14 358.93 301.07 C 359.87 312.00 371.93 304.01 368.00 294.00
C 368.34 289.53 375.18 283.32 379.00 289.00
M 274.00 293.00 
C 276.62 294.67 280.72 298.17 282.00 301.00
C 287.55 313.28 274.98 319.52 266.77 324.77 C 258.56 330.02 267.71 336.25 274.00 333.00 C 280.29 329.75 287.58 339.94 278.99 340.99 C 270.41 342.04 267.05 340.21 259.00 341.00 C 250.95 341.79 254.14 330.97 254.98 325.98 C 255.82 320.98 261.02 317.68 265.25 315.25 C 269.47 312.81 276.03 308.97 272.22 302.78 C 268.41 296.59 262.95 303.72 262.00 308.00
C 244.81 306.16 264.79 283.49 274.00 293.00
M 327.00 322.00 
C 331.77 321.01 329.45 327.30 330.00 330.00
C 324.49 329.54 327.99 337.60 327.00 341.00
C 324.00 341.00 321.00 341.00 318.00 341.00
C 322.39 326.79 307.39 331.40 300.00 326.00
C 300.80 317.03 305.16 311.37 307.77 302.77 C 310.38 294.17 314.29 288.15 322.75 295.25 C 331.20 302.36 325.21 311.95 327.00 322.00
M 422.00 292.00 
C 429.38 297.49 417.95 309.53 416.23 316.23 C 414.51 322.93 408.10 333.91 406.00 341.00
C 393.18 341.81 401.15 330.69 403.92 323.92 C 406.70 317.16 411.09 309.24 413.00 302.00
C 409.48 297.26 400.06 303.06 396.00 299.00
C 390.68 293.88 398.79 289.09 404.00 291.00 C 409.21 292.91 417.52 288.67 422.00 292.00 Z"/>
</g>
<g fill="#686868" fill-opacity="1.00" stroke="None">
<path d="
M 218.00 18.00 
C 219.94 16.52 218.58 13.21 219.00 11.00
C 221.67 11.00 224.33 11.00 227.00 11.00
C 223.46 6.33 214.40 12.28 218.00 18.00 Z"/>
</g>
<g fill="#000000" fill-opacity="1.00" stroke="None">
<path d="
M 218.00 18.00 
C 215.67 18.00 213.33 18.00 211.00 18.00
C 207.44 26.48 215.11 24.11 218.00 27.00
C 226.58 35.58 204.36 33.39 202.00 35.00
C 200.96 35.99 196.20 42.36 196.00 44.00
C 195.54 47.76 200.56 52.76 201.30 55.70 C 202.05 58.63 209.56 64.33 208.00 67.00
C 206.17 70.14 197.98 66.72 195.00 68.00
C 193.43 70.24 196.18 75.49 195.00 78.00
C 199.63 78.48 204.80 76.92 209.00 79.00
C 200.46 118.52 192.71 158.24 185.00 198.00
C 183.02 201.10 179.02 199.80 175.00 200.00
C 172.96 202.91 176.53 209.74 175.00 213.00
C 207.00 213.00 239.00 213.00 271.00 213.00
C 270.36 208.83 272.29 203.34 270.00 200.00
C 267.58 198.31 263.32 201.46 261.00 199.00
C 257.18 194.95 259.50 184.46 257.02 178.98 C 254.55 173.49 254.90 165.10 253.02 158.98 C 251.15 152.85 250.66 145.38 249.02 138.98 C 247.39 132.57 246.63 125.48 245.02 118.98 C 243.42 112.47 242.79 105.47 241.02 98.98 C 239.26 92.48 239.26 85.37 237.00 79.00
C 236.84 78.56 237.00 78.00 237.00 78.00
C 239.76 75.15 246.32 78.06 250.00 77.00
C 250.00 74.33 250.00 71.67 250.00 69.00
C 246.73 66.58 241.06 68.74 237.00 68.00
C 236.70 66.43 237.25 64.39 239.00 64.00
C 243.03 56.46 252.95 48.00 247.00 40.00
C 245.16 37.52 243.09 34.93 239.97 34.03 C 236.86 33.13 228.97 35.86 227.00 33.00
C 227.00 30.67 227.00 28.33 227.00 26.00
C 228.69 25.16 232.52 27.12 234.00 26.00
C 233.20 24.17 235.06 20.66 234.00 19.00
C 232.62 16.86 229.19 18.52 227.00 18.00
C 226.16 16.31 228.12 12.48 227.00 11.00
C 224.33 11.00 221.67 11.00 219.00 11.00
C 218.58 13.21 219.94 16.52 218.00 18.00
M 236.00 91.00 
C 243.27 127.00 249.68 163.28 258.00 199.00
C 239.90 205.60 244.58 184.36 243.00 172.00 C 241.42 159.64 239.94 143.93 239.00 131.00 C 238.06 118.07 234.33 103.40 236.00 91.00 Z"/>
</g>
<g fill="#696969" fill-opacity="1.00" stroke="None">
<path d="
M 234.00 26.00 
C 235.75 24.67 235.41 20.41 234.00 19.00
C 235.06 20.66 233.20 24.17 234.00 26.00 Z"/>
</g>
<g fill="#8F8F8F" fill-opacity="1.00" stroke="None">
<path d="
M 202.00 35.00 
C 204.36 33.39 226.58 35.58 218.00 27.00
C 218.00 29.00 218.00 31.00 218.00 33.00
C 212.59 33.70 205.99 31.20 202.00 35.00 Z"/>
</g>
<g fill="#8F8F8F" fill-opacity="1.00" stroke="None">
<path d="
M 247.00 40.00 
C 241.48 33.41 236.75 31.05 227.00 33.00
C 228.97 35.86 236.86 33.13 239.97 34.03 C 243.09 34.93 245.16 37.52 247.00 40.00 Z"/>
</g>
<g fill="#B1B1B1" fill-opacity="1.00" stroke="None">
<path d="
M 239.00 64.00 
C 238.80 65.01 237.55 65.76 238.00 67.00
C 241.96 68.08 249.43 64.68 251.00 69.00
C 251.15 70.63 251.89 76.73 251.00 78.00
C 249.43 80.24 239.79 79.25 237.00 79.00
C 239.26 85.37 239.26 92.48 241.02 98.98 C 242.79 105.47 243.42 112.47 245.02 118.98 C 246.63 125.48 247.39 132.57 249.02 138.98 C 250.66 145.38 251.15 152.85 253.02 158.98 C 254.90 165.10 254.55 173.49 257.02 178.98 C 259.50 184.46 257.18 194.95 261.00 199.00
C 263.92 199.51 267.88 197.88 270.00 200.00
C 272.29 203.34 270.36 208.83 271.00 213.00
C 239.00 213.00 207.00 213.00 175.00 213.00
C 176.53 209.74 172.96 202.91 175.00 200.00
C 176.96 197.20 182.58 200.64 185.00 198.00
C 192.71 158.24 200.46 118.52 209.00 79.00
C 204.80 76.92 199.63 78.48 195.00 78.00
C 196.18 75.49 193.43 70.24 195.00 68.00
C 197.16 64.91 204.77 68.24 208.00 67.00
C 209.56 64.33 202.05 58.63 201.30 55.70 C 200.56 52.76 195.54 47.76 196.00 44.00
C 187.19 46.28 177.26 44.37 168.00 45.00
C 168.30 63.69 167.60 84.53 168.00 103.00 C 168.40 121.47 167.22 142.23 168.00 160.00 C 168.78 177.77 165.03 198.57 171.08 213.92 C 177.12 229.28 189.46 232.15 201.93 240.07 C 214.40 248.00 232.01 247.03 244.32 239.32 C 256.63 231.61 268.44 227.90 274.69 212.69 C 280.95 197.49 277.29 176.71 278.00 159.00 C 278.71 141.29 277.63 120.33 278.00 102.00 C 278.37 83.67 277.72 63.50 278.00 45.00
C 268.53 45.29 260.11 44.12 251.00 45.00
C 251.45 42.37 248.29 41.54 247.00 40.00
C 252.95 48.00 243.03 56.46 239.00 64.00 Z"/>
</g>
<g fill="#575757" fill-opacity="1.00" stroke="None">
<path d="
M 250.00 69.00 
C 250.32 69.24 251.00 69.00 251.00 69.00
C 249.43 64.68 241.96 68.08 238.00 67.00
C 237.55 65.76 238.80 65.01 239.00 64.00
C 237.25 64.39 236.70 66.43 237.00 68.00
C 241.06 68.74 246.73 66.58 250.00 69.00 Z"/>
</g>
<g fill="#5B5B5B" fill-opacity="1.00" stroke="None">
<path d="
M 195.00 68.00 
C 197.98 66.72 206.17 70.14 208.00 67.00
C 204.77 68.24 197.16 64.91 195.00 68.00 Z"/>
</g>
<g fill="#323232" fill-opacity="1.00" stroke="None">
<path d="
M 237.00 78.00 
C 241.63 77.58 246.36 78.31 251.00 78.00
C 251.89 76.73 251.15 70.63 251.00 69.00
C 251.00 69.00 250.32 69.24 250.00 69.00
C 250.00 71.67 250.00 74.33 250.00 77.00
C 246.32 78.06 239.76 75.15 237.00 78.00 Z"/>
</g>
<g fill="#858585" fill-opacity="1.00" stroke="None">
<path d="
M 237.00 79.00 
C 239.79 79.25 249.43 80.24 251.00 78.00
C 246.36 78.31 241.63 77.58 237.00 78.00
C 237.00 78.00 236.84 78.56 237.00 79.00 Z"/>
</g>
<g fill="#323232" fill-opacity="1.00" stroke="None">
<path d="
M 236.00 91.00 
C 234.33 103.40 238.06 118.07 239.00 131.00 C 239.94 143.93 241.42 159.64 243.00 172.00 C 244.58 184.36 239.90 205.60 258.00 199.00
C 249.68 163.28 243.27 127.00 236.00 91.00 Z"/>
</g>
<g fill="#656565" fill-opacity="1.00" stroke="None">
<path d="
M 175.00 200.00 
C 179.02 199.80 183.02 201.10 185.00 198.00
C 182.58 200.64 176.96 197.20 175.00 200.00 Z"/>
</g>
<g fill="#676767" fill-opacity="1.00" stroke="None">
<path d="
M 270.00 200.00 
C 267.88 197.88 263.92 199.51 261.00 199.00
C 263.32 201.46 267.58 198.31 270.00 200.00 Z"/>
</g>
<g fill="#060606" fill-opacity="1.00" stroke="None">
<path d="
M 21.00 308.00 
C 20.89 313.48 20.33 319.57 21.00 325.00
C 22.57 332.86 31.22 343.70 39.77 340.77 C 48.32 337.84 55.98 325.15 43.00 323.00
C 39.03 334.05 31.24 333.19 31.00 321.00
C 30.49 316.77 30.40 312.19 31.00 308.00
C 27.91 295.10 43.35 297.53 43.00 308.00
C 55.22 305.53 49.42 291.27 39.22 288.78 C 29.03 286.29 21.19 298.66 21.00 308.00 Z"/>
</g>
<g fill="#808080" fill-opacity="1.00" stroke="None">
<path d="
M 71.00 291.00 
C 74.49 289.04 77.06 288.76 79.00 293.00
C 76.98 287.37 74.82 288.01 71.00 291.00 Z"/>
</g>
<g fill="#020202" fill-opacity="1.00" stroke="None">
<path d="
M 121.00 294.00 
C 117.09 300.12 121.28 309.83 120.00 317.00 C 118.72 324.17 120.96 333.62 120.00 341.00
C 122.49 342.74 130.92 340.55 134.00 341.00 C 137.08 341.45 144.97 342.03 147.00 340.00
C 148.25 338.21 146.06 334.01 147.00 332.00
C 141.33 332.00 135.67 332.00 130.00 332.00
C 130.00 327.33 130.00 322.67 130.00 318.00
C 133.26 316.47 140.09 320.04 143.00 318.00
C 143.00 315.00 143.00 312.00 143.00 309.00
C 138.67 309.00 134.33 309.00 130.00 309.00
C 127.94 307.56 128.00 297.89 131.00 297.00
C 131.46 296.86 132.00 297.00 132.00 297.00
C 135.24 294.60 141.84 296.38 146.00 296.00
C 146.25 295.74 146.00 295.00 146.00 295.00
C 146.00 292.67 146.00 290.33 146.00 288.00
C 137.04 287.73 127.38 286.89 121.00 294.00 Z"/>
</g>
<g fill="#060606" fill-opacity="1.00" stroke="None">
<path d="
M 185.00 306.00 
C 195.18 303.91 193.04 297.39 186.25 291.75 C 179.46 286.11 174.46 288.40 167.75 293.75 C 161.04 299.10 161.96 308.17 167.25 313.75 C 172.54 319.34 182.09 317.54 182.99 325.99 C 183.90 334.45 170.48 330.46 170.00 323.00
C 167.59 324.16 165.73 326.69 163.00 327.00
C 162.51 333.68 173.80 344.24 180.30 341.30 C 186.81 338.37 195.79 330.82 192.97 322.03 C 190.15 313.23 182.17 314.32 175.25 307.75 C 168.33 301.18 183.34 292.06 185.00 306.00 Z"/>
</g>
<g fill="#050505" fill-opacity="1.00" stroke="None">
<path d="
M 209.00 332.00 
C 209.73 333.47 214.65 337.95 216.00 339.00
C 223.07 344.87 227.96 339.75 233.75 334.75 C 239.54 329.76 239.59 321.19 234.23 315.77 C 228.87 310.35 221.47 312.91 218.00 305.00 C 214.53 297.09 231.15 295.97 230.00 306.00
C 240.04 305.28 238.92 296.13 231.70 291.30 C 224.48 286.48 219.34 288.35 213.25 294.25 C 207.15 300.15 206.41 306.84 211.75 313.25 C 217.10 319.65 225.34 316.33 228.00 325.00 C 230.66 333.67 215.30 332.42 216.00 323.00
C 212.58 322.70 211.14 326.82 208.00 327.00
C 208.00 328.71 208.40 330.50 209.00 332.00 Z"/>
</g>
<g fill="#949494" fill-opacity="1.00" stroke="None">
<path d="
M 368.00 294.00 
C 368.18 292.91 369.88 290.76 369.00 289.00
C 372.33 289.00 375.67 289.00 379.00 289.00
C 375.18 283.32 368.34 289.53 368.00 294.00 Z"/>
</g>
<g fill="#010101" fill-opacity="1.00" stroke="None">
<path d="
M 71.00 291.00 
C 65.69 295.15 68.48 295.88 70.00 302.00
C 70.76 305.07 71.75 310.34 71.00 314.00 C 70.25 317.66 72.24 324.84 71.00 328.00 C 69.76 331.16 73.16 339.69 72.00 341.00
C 74.23 341.48 78.54 341.46 80.00 340.00
C 83.55 334.93 76.37 322.63 81.00 318.00
C 82.73 316.27 89.31 316.31 91.00 318.00
C 95.38 322.38 87.85 337.36 93.00 341.00
C 94.59 341.78 100.10 341.29 101.00 340.00
C 101.00 323.00 101.00 306.00 101.00 289.00
C 98.74 290.06 94.01 287.59 92.00 289.00
C 90.03 293.29 95.07 305.15 91.00 308.00
C 90.25 308.53 81.75 308.53 81.00 308.00
C 78.94 306.56 80.17 301.38 80.00 299.00
C 79.84 296.81 79.71 294.98 79.00 293.00
C 77.06 288.76 74.49 289.04 71.00 291.00 Z"/>
</g>
<g fill="#6B6B6B" fill-opacity="1.00" stroke="None">
<path d="
M 91.00 308.00 
C 95.07 305.15 90.03 293.29 92.00 289.00
C 87.93 291.85 92.97 303.71 91.00 308.00 Z"/>
</g>
<g fill="#040404" fill-opacity="1.00" stroke="None">
<path d="
M 346.00 334.00 
C 346.00 336.33 346.00 338.67 346.00 341.00
C 346.71 341.50 353.18 341.40 354.00 341.00
C 355.23 340.13 355.90 332.99 356.00 332.00
C 353.74 326.08 359.69 313.18 365.75 319.25 C 371.82 325.31 368.91 333.32 370.00 341.00
C 373.33 341.00 376.67 341.00 380.00 341.00
C 379.91 329.95 379.20 318.83 371.00 311.00
C 373.53 309.46 377.66 305.45 377.22 302.22 C 376.78 299.00 380.93 291.88 379.00 289.00
C 375.67 289.00 372.33 289.00 369.00 289.00
C 369.88 290.76 368.18 292.91 368.00 294.00
C 371.93 304.01 359.87 312.00 358.93 301.07 C 357.98 290.14 352.76 286.97 345.00 293.00
C 348.09 299.64 349.02 307.25 354.00 313.00
C 346.41 317.62 346.00 325.94 346.00 334.00 Z"/>
</g>
<g fill="#060606" fill-opacity="1.00" stroke="None">
<path d="
M 282.00 301.00 
C 281.02 299.17 275.68 294.27 274.00 293.00
C 264.79 283.49 244.81 306.16 262.00 308.00
C 262.95 303.72 268.41 296.59 272.22 302.78 C 276.03 308.97 269.47 312.81 265.25 315.25 C 261.02 317.68 255.82 320.98 254.98 325.98 C 254.14 330.97 250.95 341.79 259.00 341.00 C 267.05 340.21 270.41 342.04 278.99 340.99 C 287.58 339.94 280.29 329.75 274.00 333.00 C 267.71 336.25 258.56 330.02 266.77 324.77 C 274.98 319.52 287.55 313.28 282.00 301.00 Z"/>
</g>
<g fill="#040404" fill-opacity="1.00" stroke="None">
<path d="
M 327.00 322.00 
C 325.21 311.95 331.20 302.36 322.75 295.25 C 314.29 288.15 310.38 294.17 307.77 302.77 C 305.16 311.37 300.80 317.03 300.00 326.00
C 307.39 331.40 322.39 326.79 318.00 341.00
C 321.00 341.00 324.00 341.00 327.00 341.00
C 327.99 337.60 324.49 329.54 330.00 330.00
C 329.45 327.30 331.77 321.01 327.00 322.00
M 318.00 322.00 
C 315.48 321.44 311.70 323.19 310.00 321.00
C 313.10 314.92 313.58 307.98 317.00 302.00
C 319.28 307.75 317.37 315.49 318.00 322.00 Z"/>
</g>
<g fill="#676767" fill-opacity="1.00" stroke="None">
<path d="
M 396.00 299.00 
C 395.96 299.00 396.00 298.00 396.00 298.00
C 395.64 296.07 396.27 293.95 396.00 292.00
C 404.67 292.00 413.33 292.00 422.00 292.00
C 417.52 288.67 409.21 292.91 404.00 291.00 C 398.79 289.09 390.68 293.88 396.00 299.00 Z"/>
</g>
<g fill="#050505" fill-opacity="1.00" stroke="None">
<path d="
M 396.00 298.00 
C 402.28 297.43 408.71 298.43 415.00 298.00
C 414.89 299.00 415.47 300.73 414.00 301.00
C 413.77 301.29 413.13 301.73 413.00 302.00
C 411.09 309.24 406.70 317.16 403.92 323.92 C 401.15 330.69 393.18 341.81 406.00 341.00
C 408.10 333.91 414.51 322.93 416.23 316.23 C 417.95 309.53 429.38 297.49 422.00 292.00
C 413.33 292.00 404.67 292.00 396.00 292.00
C 396.27 293.95 395.64 296.07 396.00 298.00 Z"/>
</g>
<g fill="#787878" fill-opacity="1.00" stroke="None">
<path d="
M 282.00 301.00 
C 280.72 298.17 276.62 294.67 274.00 293.00
C 275.68 294.27 281.02 299.17 282.00 301.00 Z"/>
</g>
<g fill="#8F8F8F" fill-opacity="1.00" stroke="None">
<path d="
M 120.00 341.00 
C 120.96 333.62 118.72 324.17 120.00 317.00 C 121.28 309.83 117.09 300.12 121.00 294.00
C 117.90 297.46 118.81 304.19 119.00 309.00 C 119.19 313.81 118.29 321.66 119.00 326.00 C 119.71 330.34 116.70 338.69 120.00 341.00 Z"/>
</g>
<g fill="#CACACA" fill-opacity="1.00" stroke="None">
<path d="
M 146.00 296.00 
C 143.68 298.40 135.43 297.00 132.00 297.00
C 132.00 297.00 131.46 296.86 131.00 297.00
C 128.47 300.13 130.84 305.36 130.00 309.00
C 134.33 309.00 138.67 309.00 143.00 309.00
C 143.00 312.00 143.00 315.00 143.00 318.00
C 148.37 309.08 138.61 306.06 131.00 308.00
C 128.98 303.76 132.14 295.52 137.00 298.00 C 141.86 300.48 149.09 295.30 146.00 295.00
C 146.00 295.00 146.25 295.74 146.00 296.00 Z"/>
</g>
<g fill="#595959" fill-opacity="1.00" stroke="None">
<path d="
M 132.00 297.00 
C 135.43 297.00 143.68 298.40 146.00 296.00
C 141.84 296.38 135.24 294.60 132.00 297.00 Z"/>
</g>
<g fill="#585858" fill-opacity="1.00" stroke="None">
<path d="
M 130.00 309.00 
C 130.84 305.36 128.47 300.13 131.00 297.00
C 128.00 297.89 127.94 307.56 130.00 309.00 Z"/>
</g>
<g fill="#343434" fill-opacity="1.00" stroke="None">
<path d="
M 396.00 299.00 
C 399.28 299.30 413.94 297.16 414.00 301.00
C 415.47 300.73 414.89 299.00 415.00 298.00
C 408.71 298.43 402.28 297.43 396.00 298.00
C 396.00 298.00 395.96 299.00 396.00 299.00 Z"/>
</g>
<g fill="#6D6D6D" fill-opacity="1.00" stroke="None">
<path d="
M 81.00 308.00 
C 81.74 304.92 80.44 301.40 80.00 299.00
C 80.17 301.38 78.94 306.56 81.00 308.00 Z"/>
</g>
<g fill="#BEBEBE" fill-opacity="1.00" stroke="None">
<path d="
M 413.00 302.00 
C 413.13 301.73 413.77 301.29 414.00 301.00
C 413.94 297.16 399.28 299.30 396.00 299.00
C 400.06 303.06 409.48 297.26 413.00 302.00 Z"/>
</g>
<g fill="#878787" fill-opacity="1.00" stroke="None">
<path d="
M 70.00 340.00 
C 70.16 340.36 71.65 340.92 72.00 341.00
C 73.16 339.69 69.76 331.16 71.00 328.00 C 72.24 324.84 70.25 317.66 71.00 314.00 C 71.75 310.34 70.76 305.07 70.00 302.00
C 70.73 307.92 68.83 315.25 70.00 321.00 C 71.17 326.75 67.61 334.79 70.00 340.00 Z"/>
</g>
<g fill="#D3D3D3" fill-opacity="1.00" stroke="None">
<path d="
M 318.00 322.00 
C 317.37 315.49 319.28 307.75 317.00 302.00
C 313.58 307.98 313.10 314.92 310.00 321.00
C 311.70 323.19 315.48 321.44 318.00 322.00 Z"/>
</g>
<g fill="#909090" fill-opacity="1.00" stroke="None">
<path d="
M 21.00 325.00 
C 20.33 319.57 20.89 313.48 21.00 308.00
C 20.36 313.31 19.65 319.56 21.00 325.00 Z"/>
</g>
<g fill="#7C7C7C" fill-opacity="1.00" stroke="None">
<path d="
M 31.00 321.00 
C 30.91 316.69 30.84 312.31 31.00 308.00
C 30.40 312.19 30.49 316.77 31.00 321.00 Z"/>
</g>
<g fill="#D4D4D4" fill-opacity="1.00" stroke="None">
<path d="
M 81.00 318.00 
C 77.45 323.07 84.63 335.37 80.00 340.00
C 78.54 341.46 74.23 341.48 72.00 341.00
C 71.65 340.92 70.16 340.36 70.00 340.00
C 72.12 343.74 83.12 343.58 82.00 337.00 C 80.88 330.42 82.84 324.52 82.00 318.00
C 84.52 318.47 88.23 316.97 90.00 319.00
C 87.73 321.52 92.12 329.39 90.00 336.00 C 87.88 342.61 99.91 344.39 101.00 340.00
C 100.10 341.29 94.59 341.78 93.00 341.00
C 86.47 337.77 94.45 322.92 91.00 318.00
C 89.31 316.31 82.73 316.27 81.00 318.00 Z"/>
</g>
<g fill="#636363" fill-opacity="1.00" stroke="None">
<path d="
M 80.00 340.00 
C 84.63 335.37 77.45 323.07 81.00 318.00
C 76.37 322.63 83.55 334.93 80.00 340.00 Z"/>
</g>
<g fill="#696969" fill-opacity="1.00" stroke="None">
<path d="
M 93.00 341.00 
C 87.85 337.36 95.38 322.38 91.00 318.00
C 94.45 322.92 86.47 337.77 93.00 341.00 Z"/>
</g>
<g fill="#787878" fill-opacity="1.00" stroke="None">
<path d="
M 147.00 340.00 
C 148.38 338.62 148.88 333.31 147.00 332.00
C 146.06 334.01 148.25 338.21 147.00 340.00 Z"/>
</g>
<g fill="#717171" fill-opacity="1.00" stroke="None">
<path d="
M 216.00 339.00 
C 214.65 337.95 209.73 333.47 209.00 332.00
C 210.03 334.56 213.72 337.48 216.00 339.00 Z"/>
</g>
<g fill="#797979" fill-opacity="1.00" stroke="None">
<path d="
M 354.00 341.00 
C 357.11 339.46 356.00 335.00 356.00 332.00
C 355.90 332.99 355.23 340.13 354.00 341.00 Z"/>
</g>
<g fill="#858585" fill-opacity="1.00" stroke="None">
<path d="
M 346.00 341.00 
C 346.00 338.67 346.00 336.33 346.00 334.00
C 345.84 335.65 343.50 339.25 346.00 341.00 Z"/>
</g>
</svg>